<svg id="Social_Network_Facebook" data-name="Social Network/Facebook" xmlns="http://www.w3.org/2000/svg" width="59" height="59" viewBox="0 0 59 59">
  <rect id="Area" width="59" height="59" transform="translate(0 0)" fill="none"/>
  <path id="Facebook" d="M29.5,59h0L5.9,59A5.906,5.906,0,0,1,0,53.1V5.9A5.906,5.906,0,0,1,5.9,0H53.1A5.906,5.906,0,0,1,59,5.9V53.1A5.906,5.906,0,0,1,53.1,59H38.349V36.786h7.562l1.213-8.328H38.349V24.9c0-3.431,1.108-4.768,3.951-4.768h4.9V12.162l-.093-.012a43.185,43.185,0,0,0-6.03-.352c-3.685,0-6.539.982-8.483,2.918-2.054,2.045-3.1,5.163-3.1,9.268v4.473H20.651v8.328H29.5V59Z" transform="translate(0 0)" fill="#304659"/>
</svg>
