<svg xmlns="http://www.w3.org/2000/svg" width="176.403" height="49.061" viewBox="0 0 176.403 49.061">
  <g id="Group_451" data-name="Group 451" transform="translate(-9.372 -146.983)">
    <g id="g5007" transform="translate(73.522 168.381)">
      <path id="path5009" d="M167.215,210.2h-5.4a.061.061,0,0,1-.052-.023l-4.651-5.672-4.652,5.672a.061.061,0,0,1-.051.023h-4.32a.068.068,0,0,1-.066-.039.063.063,0,0,1,.01-.07l6.851-8.41-6.776-8.331a.087.087,0,0,1-.008-.077.088.088,0,0,1,.057-.039h5.4a.063.063,0,0,1,.051.033l4.077,5.052,4.153-5.057a.067.067,0,0,1,.051-.029h4.4a.08.08,0,0,1,.061.039.077.077,0,0,1-.008.077l-6.426,7.716,7.344,9.025a.056.056,0,0,1,.006.07.062.062,0,0,1-.059.039" transform="translate(-148.019 -193.229)" fill="#1f3562"/>
    </g>
    <g id="g5011" transform="translate(112.754 167.691)">
      <path id="path5013" d="M241.99,195.415c-2.388,0-4.022,1.449-4.493,3.975h8.135v-.166a3.691,3.691,0,0,0-3.642-3.809m7.832,6.56a.067.067,0,0,1-.059.028H237.412c.257,2.875,2.125,4.514,5.15,4.514,1.861,0,3.837-.638,6.631-2.122a.073.073,0,0,1,.1.069l-.008,3.795c-.006.034-.018.053-.037.059a20.178,20.178,0,0,1-7.259,1.84,9.21,9.21,0,0,1,0-18.421c4.85,0,7.97,3.269,7.97,7.762,0,.727-.131,2.42-.138,2.476" transform="translate(-232.81 -191.738)" fill="#1f3562"/>
    </g>
    <g id="g5015" transform="translate(152.115 159.39)">
      <path id="path5017" d="M320.627,179.285a2.728,2.728,0,0,1-2.747-2.7,2.746,2.746,0,1,1,5.491,0,2.725,2.725,0,0,1-2.743,2.7m-2.222,20.47a.065.065,0,0,1-.069-.07V182.856a.068.068,0,0,1,.055-.066h4.464a.067.067,0,0,1,.053.066v16.829a.065.065,0,0,1-.066.07Z" transform="translate(-317.88 -173.797)" fill="#1f3562"/>
    </g>
    <g id="g5019" transform="translate(93.726 167.696)">
      <path id="path5021" d="M198.844,206.867a9.758,9.758,0,0,1-2.575-.365l.006-10.8a9.832,9.832,0,0,1,3.027-.516c3.092,0,5.168,2.278,5.168,5.67,0,3.652-2.207,6.011-5.625,6.011m1.209-15.118a11.741,11.741,0,0,0-3.86.684h-4.442a.068.068,0,0,0-.065.068v27.6a10.215,10.215,0,0,0,4.586-1.8l0-8.395a20.008,20.008,0,0,0,2.867.257c6.082,0,10.018-3.642,10.018-9.282a8.725,8.725,0,0,0-9.1-9.133" transform="translate(-191.686 -191.749)" fill="#1f3562"/>
    </g>
    <g id="g5023" transform="translate(131.624 157.671)">
      <path id="path5025" d="M286.487,193.829a8.205,8.205,0,0,1-3.8,1.076c-2.755,0-4.406-1.944-4.406-5.2,0-3.765,2.106-6.206,5.364-6.206a6.713,6.713,0,0,1,2.839.7Zm0-21.943v8.809a12.7,12.7,0,0,0-3.606-.548,9.081,9.081,0,0,0-9.287,9.289c0,5.266,3.524,9.089,8.37,9.089a10.769,10.769,0,0,0,5.1-1.37l-.007,1.524a10.225,10.225,0,0,0,4.005-1.706V170.083a9.84,9.84,0,0,0-4.578,1.8" transform="translate(-273.594 -170.083)" fill="#1f3562"/>
    </g>
    <g id="g5027" transform="translate(159.716 167.732)">
      <path id="path5029" d="M347.191,205.478a7.225,7.225,0,0,1-3.528,1.15c-2.949,0-4.712-1.94-4.712-5.209,0-3.711,2.077-6.2,5.172-6.2a6.862,6.862,0,0,1,3.068.968Zm4.588-13.2a.194.194,0,0,0-.194-.189l-3.6.007a.194.194,0,0,0-.2.2v.609h-.091a11.045,11.045,0,0,0-4.484-1.068c-4.989,0-8.9,4.141-8.9,9.439,0,5.356,3.5,8.941,8.712,8.941a5.716,5.716,0,0,0,4.848-2.018v2.164a10.328,10.328,0,0,0,3.9-1.7Z" transform="translate(-334.308 -191.828)" fill="#1f3562"/>
    </g>
    <g id="g5031" transform="translate(56.5 158.128)">
      <path id="path5033" d="M115.99,194.023l11.176,0a10.1,10.1,0,0,1-1.56,4.2H113.979a2.766,2.766,0,0,1-2.733-2.5c0-.02-.014-.039-.018-.056v-22.04c0-.016.014-.036.018-.054a2.77,2.77,0,0,1,2.733-2.5c.049,0,.088.009.13.009l13.033,0a10.208,10.208,0,0,1-1.56,4.23H115.99v6h9.493a.068.068,0,0,1,.07.066v4.162a.068.068,0,0,1-.07.064H115.99v8.428Z" transform="translate(-111.228 -171.07)" fill="#1f3562"/>
    </g>
    <g id="g5035" transform="translate(73.523 168.379)">
      <path id="path5037" d="M167.217,210.192h-5.4a.066.066,0,0,1-.053-.021l-4.649-5.673-4.653,5.673a.07.07,0,0,1-.054.021h-4.321a.067.067,0,0,1-.062-.039.064.064,0,0,1,.009-.07l6.851-8.408-6.772-8.333a.071.071,0,0,1-.011-.074.082.082,0,0,1,.061-.041h5.4a.065.065,0,0,1,.052.033l4.079,5.054,4.151-5.059a.072.072,0,0,1,.054-.028h4.4a.083.083,0,0,1,.062.041.072.072,0,0,1-.011.074l-6.425,7.717,7.343,9.025a.056.056,0,0,1,.009.07.063.063,0,0,1-.059.039" transform="translate(-148.021 -193.226)" fill="#1f3562"/>
    </g>
    <g id="g5039" transform="translate(112.758 167.691)">
      <path id="path5041" d="M241.994,195.415c-2.388,0-4.024,1.449-4.493,3.976h8.135v-.166a3.69,3.69,0,0,0-3.642-3.81m7.832,6.559a.067.067,0,0,1-.059.029H237.42c.252,2.874,2.121,4.514,5.146,4.514,1.861,0,3.837-.636,6.634-2.12.044-.027.1.016.1.069l-.008,3.792c-.005.034-.018.054-.039.059a20.155,20.155,0,0,1-7.259,1.842,9.211,9.211,0,0,1,0-18.421c4.852,0,7.97,3.265,7.97,7.76,0,.727-.131,2.418-.138,2.475" transform="translate(-232.818 -191.738)" fill="#1f3562"/>
    </g>
    <g id="g5043" transform="translate(152.114 159.387)">
      <path id="path5045" d="M320.627,179.282a2.732,2.732,0,0,1-2.749-2.706,2.747,2.747,0,1,1,5.494,0,2.728,2.728,0,0,1-2.744,2.706M318.4,199.75a.063.063,0,0,1-.069-.068V182.851a.063.063,0,0,1,.054-.064h4.464a.064.064,0,0,1,.056.064v16.831a.063.063,0,0,1-.066.068Z" transform="translate(-317.878 -173.792)" fill="#1f3562"/>
    </g>
    <g id="g5047" transform="translate(93.729 167.693)">
      <path id="path5049" d="M198.846,206.862a9.718,9.718,0,0,1-2.575-.364l.007-10.8a9.725,9.725,0,0,1,3.028-.518c3.09,0,5.168,2.28,5.168,5.672,0,3.652-2.207,6.009-5.627,6.009m1.209-15.12a11.8,11.8,0,0,0-3.86.684h-4.441a.066.066,0,0,0-.064.07v27.6a10.223,10.223,0,0,0,4.584-1.8l0-8.392a20.072,20.072,0,0,0,2.867.257c6.082,0,10.018-3.644,10.018-9.282a8.724,8.724,0,0,0-9.1-9.137" transform="translate(-191.691 -191.742)" fill="#1f3562"/>
    </g>
    <g id="g5051" transform="translate(131.625 157.668)">
      <path id="path5053" d="M286.488,193.824a8.216,8.216,0,0,1-3.8,1.076c-2.755,0-4.406-1.946-4.406-5.206,0-3.764,2.108-6.206,5.366-6.206a6.668,6.668,0,0,1,2.837.7Zm0-21.947v8.811a12.608,12.608,0,0,0-3.606-.547,9.08,9.08,0,0,0-9.286,9.287c0,5.266,3.523,9.091,8.371,9.091a10.768,10.768,0,0,0,5.1-1.37l-.007,1.522a10.261,10.261,0,0,0,4.007-1.7V170.075a9.892,9.892,0,0,0-4.58,1.8" transform="translate(-273.596 -170.075)" fill="#1f3562"/>
    </g>
    <g id="g5055" transform="translate(159.716 167.733)">
      <path id="path5057" d="M347.191,205.476a7.22,7.22,0,0,1-3.528,1.152c-2.949,0-4.712-1.941-4.712-5.209,0-3.711,2.078-6.206,5.172-6.206a6.826,6.826,0,0,1,3.068.969Zm4.588-13.2a.2.2,0,0,0-.194-.189l-3.6.006a.2.2,0,0,0-.2.194v.612h-.091a11.041,11.041,0,0,0-4.484-1.068c-4.989,0-8.9,4.139-8.9,9.438,0,5.354,3.5,8.941,8.712,8.941a5.715,5.715,0,0,0,4.85-2.021v2.167a10.341,10.341,0,0,0,3.9-1.705Z" transform="translate(-334.308 -191.829)" fill="#1f3562"/>
    </g>
    <g id="g5059" transform="translate(56.501 158.126)">
      <path id="path5061" d="M115.994,194.019h11.174a10.144,10.144,0,0,1-1.56,4.2H113.981a2.768,2.768,0,0,1-2.733-2.5c0-.018-.012-.037-.017-.056v-22.04c0-.016.013-.037.017-.054a2.771,2.771,0,0,1,2.733-2.5c.046,0,.089.008.13.008l13.031-.005a10.2,10.2,0,0,1-1.559,4.231h-9.589v6h9.493a.068.068,0,0,1,.07.064v4.164a.068.068,0,0,1-.07.065h-9.493v8.426Z" transform="translate(-111.231 -171.066)" fill="#1f3562"/>
    </g>
    <g id="g5063" transform="translate(179.221 164.699)">
      <path id="path5065" d="M379.19,188.3h.517c.58,0,.853-.163.853-.563,0-.416-.291-.588-.891-.588h-.479Zm.626-1.649c1.034,0,1.55.352,1.55,1a.971.971,0,0,1-.816,1.017l.816,1.658h-.878l-.726-1.531h-.572v1.531H378.4v-3.671Zm-2.02-.1a2.841,2.841,0,0,0-.844,1.994,2.8,2.8,0,0,0,2.746,2.792,2.852,2.852,0,0,0,2.022-.814,2.665,2.665,0,0,0,.814-1.931,2.783,2.783,0,0,0-2.79-2.838,2.668,2.668,0,0,0-1.949.8m4.287-.3a3.217,3.217,0,0,1,.934,2.294,3.17,3.17,0,0,1-.961,2.321,3.325,3.325,0,0,1-2.323.961,3.312,3.312,0,0,1-3.27-3.282,3.3,3.3,0,0,1,.987-2.338,3.139,3.139,0,0,1,2.283-.934,3.24,3.24,0,0,1,2.35.979" transform="translate(-376.463 -185.273)" fill="#1f3562"/>
    </g>
    <g id="g5067" transform="translate(9.372 146.983)">
      <path id="path5069" d="M32.88,162.422l-.809-2.29-6.865-9.175,1.233-.307,11.838,10.232,6.965-1.993a10.074,10.074,0,0,1,2.456-.25A20.1,20.1,0,0,0,9.6,170.1l16.685-5.8Z" transform="translate(-9.372 -146.983)" fill="#1f3561"/>
    </g>
    <g id="g5071" transform="translate(9.781 160.446)">
      <path id="path5073" d="M48.906,176.08a10.9,10.9,0,0,1-2.4,1.2l-6.982,1.99-4.657,14.954-1.209.4.985-11.421-.552-2.371L27.548,182.7l-17.293,4.069A20.1,20.1,0,1,0,48.906,176.08" transform="translate(-10.255 -176.08)" fill="#1f3561"/>
    </g>
    <g id="g5079" transform="translate(45.195 181.643)">
      <path id="path5081" d="M88.893,225.947a1.787,1.787,0,0,1-1.788-1.918,1.786,1.786,0,1,1,1.788,1.918m0-4.055a2.132,2.132,0,1,0,2.086,2.136,2.068,2.068,0,0,0-2.086-2.136" transform="translate(-86.796 -221.892)" fill="#1f3561"/>
    </g>
    <g id="g5083" transform="translate(46.405 182.513)">
      <path id="path5085" d="M89.8,224.863v-.776h.527c.264,0,.579.037.579.362,0,.383-.291.414-.618.414Zm1.494-.362c0-.513-.313-.727-.922-.727H89.41V226.3h.415v-1.079h.389l.654,1.079h.468l-.707-1.107a.649.649,0,0,0,.66-.69" transform="translate(-89.41 -223.773)" fill="#1f3561"/>
    </g>
  </g>
</svg>
