<svg xmlns="http://www.w3.org/2000/svg" width="59.001" height="59.001" viewBox="0 0 59.001 59.001">
  <g id="Group_451" data-name="Group 451" transform="translate(-1647 -110)">
    <path id="Twitter" d="M96.9,0h47.2A5.9,5.9,0,0,1,150,5.9V53.1a5.9,5.9,0,0,1-5.9,5.9H96.9A5.9,5.9,0,0,1,91,53.1V5.9A5.9,5.9,0,0,1,96.9,0Z" transform="translate(1556 110)" fill="#304659"/>
    <path id="Border" d="M38,30H0V0H38V30ZM3.167,6.989v19.8H34.833V6.989L19,16.875Zm0-3.774L19,13.11l15.833-9.9Z" transform="translate(1658 125)" fill="#fff"/>
  </g>
</svg>
